# xmcd
#
# Track frame offsets: 
#        150
#        24740
#        49760
#        84489
#        99251
#        129812
#        155070
#        169033
#
# Disc length: 2778 seconds
#
# Revision: 0
# Processed by: cddbd v1.5.2PL0 Copyright (c) Steve Scherf et al.
# Submitted via: ExactAudioCopy v0.99pb5
#
DISCID=580ad808
DTITLE=Blues Traveler - Theta Delta Pi, Hobart Collage, Geneva, NY. 19
DTITLE=90-05-27 CD 1
DYEAR=1990
DGENRE=Blues
TTITLE0=01 Weird Chick
TTITLE1=02 Mulling It Over
TTITLE2=03 But Anyway
TTITLE3=04 Trust In Trust
TTITLE4=05 Bad To The Bone
TTITLE5=06 Gina
TTITLE6=07 Gotta get Mean
TTITLE7=08 Gloria (fades out)
EXTD=
EXTT0=
EXTT1=
EXTT2=
EXTT3=
EXTT4=
EXTT5=
EXTT6=
EXTT7=
PLAYORDER=
